<mxfile host="app.diagrams.net" agent="Mozilla/5.0 (Windows NT 10.0; Win64; x64) AppleWebKit/537.36 (KHTML, like Gecko) Chrome/132.0.0.0 Safari/537.36 Edg/132.0.0.0" version="26.0.9">
  <diagram id="C5RBs43oDa-KdzZeNtuy" name="Page-1">
    <mxGraphModel dx="1831" dy="807" grid="1" gridSize="10" guides="1" tooltips="1" connect="1" arrows="1" fold="1" page="1" pageScale="1" pageWidth="827" pageHeight="1169" math="0" shadow="0">
      <root>
        <mxCell id="WIyWlLk6GJQsqaUBKTNV-0" />
        <mxCell id="WIyWlLk6GJQsqaUBKTNV-1" parent="WIyWlLk6GJQsqaUBKTNV-0" />
        <mxCell id="KQYmgQ2tdcygpwAe7LnK-3" value="" style="edgeStyle=orthogonalEdgeStyle;rounded=0;orthogonalLoop=1;jettySize=auto;html=1;fontFamily=Courier New;fontSize=11;" parent="WIyWlLk6GJQsqaUBKTNV-1" source="KQYmgQ2tdcygpwAe7LnK-0" target="KQYmgQ2tdcygpwAe7LnK-2" edge="1">
          <mxGeometry relative="1" as="geometry" />
        </mxCell>
        <mxCell id="KQYmgQ2tdcygpwAe7LnK-0" value="Start" style="ellipse;whiteSpace=wrap;html=1;fontFamily=Courier New;fontSize=11;" parent="WIyWlLk6GJQsqaUBKTNV-1" vertex="1">
          <mxGeometry x="10" y="60" width="160" height="70" as="geometry" />
        </mxCell>
        <mxCell id="KQYmgQ2tdcygpwAe7LnK-5" value="" style="edgeStyle=orthogonalEdgeStyle;rounded=0;orthogonalLoop=1;jettySize=auto;html=1;fontSize=11;fontFamily=Courier New;" parent="WIyWlLk6GJQsqaUBKTNV-1" source="KQYmgQ2tdcygpwAe7LnK-2" target="KQYmgQ2tdcygpwAe7LnK-4" edge="1">
          <mxGeometry relative="1" as="geometry" />
        </mxCell>
        <mxCell id="KQYmgQ2tdcygpwAe7LnK-2" value="Inisialisasi GUI" style="whiteSpace=wrap;html=1;fontFamily=Courier New;fontSize=11;" parent="WIyWlLk6GJQsqaUBKTNV-1" vertex="1">
          <mxGeometry x="230" y="60" width="160" height="70" as="geometry" />
        </mxCell>
        <mxCell id="KQYmgQ2tdcygpwAe7LnK-7" value="" style="edgeStyle=orthogonalEdgeStyle;rounded=0;orthogonalLoop=1;jettySize=auto;html=1;fontSize=11;fontFamily=Courier New;" parent="WIyWlLk6GJQsqaUBKTNV-1" source="KQYmgQ2tdcygpwAe7LnK-4" target="KQYmgQ2tdcygpwAe7LnK-6" edge="1">
          <mxGeometry relative="1" as="geometry" />
        </mxCell>
        <mxCell id="KQYmgQ2tdcygpwAe7LnK-4" value="User Input" style="whiteSpace=wrap;html=1;fontSize=11;fontFamily=Courier New;" parent="WIyWlLk6GJQsqaUBKTNV-1" vertex="1">
          <mxGeometry x="440" y="60" width="160" height="70" as="geometry" />
        </mxCell>
        <mxCell id="KQYmgQ2tdcygpwAe7LnK-10" value="" style="edgeStyle=orthogonalEdgeStyle;rounded=0;orthogonalLoop=1;jettySize=auto;html=1;fontSize=11;fontFamily=Courier New;" parent="WIyWlLk6GJQsqaUBKTNV-1" source="KQYmgQ2tdcygpwAe7LnK-6" target="KQYmgQ2tdcygpwAe7LnK-9" edge="1">
          <mxGeometry relative="1" as="geometry" />
        </mxCell>
        <mxCell id="KQYmgQ2tdcygpwAe7LnK-12" value="" style="edgeStyle=orthogonalEdgeStyle;rounded=0;orthogonalLoop=1;jettySize=auto;html=1;fontSize=11;entryX=1;entryY=0.5;entryDx=0;entryDy=0;fontFamily=Courier New;" parent="WIyWlLk6GJQsqaUBKTNV-1" source="KQYmgQ2tdcygpwAe7LnK-6" target="KQYmgQ2tdcygpwAe7LnK-32" edge="1">
          <mxGeometry relative="1" as="geometry">
            <mxPoint x="390" y="252.5" as="targetPoint" />
          </mxGeometry>
        </mxCell>
        <mxCell id="KQYmgQ2tdcygpwAe7LnK-6" value="Cari film" style="rhombus;whiteSpace=wrap;html=1;fontSize=11;fontFamily=Courier New;" parent="WIyWlLk6GJQsqaUBKTNV-1" vertex="1">
          <mxGeometry x="455" y="190" width="130" height="125" as="geometry" />
        </mxCell>
        <mxCell id="KQYmgQ2tdcygpwAe7LnK-14" value="" style="edgeStyle=orthogonalEdgeStyle;rounded=0;orthogonalLoop=1;jettySize=auto;html=1;fontSize=11;fontFamily=Courier New;" parent="WIyWlLk6GJQsqaUBKTNV-1" source="KQYmgQ2tdcygpwAe7LnK-9" target="KQYmgQ2tdcygpwAe7LnK-13" edge="1">
          <mxGeometry relative="1" as="geometry" />
        </mxCell>
        <mxCell id="KQYmgQ2tdcygpwAe7LnK-9" value="validasi input&lt;div&gt;(Aljabar Boolean)&lt;/div&gt;" style="whiteSpace=wrap;html=1;fontSize=11;fontFamily=Courier New;" parent="WIyWlLk6GJQsqaUBKTNV-1" vertex="1">
          <mxGeometry x="440" y="370" width="160" height="70" as="geometry" />
        </mxCell>
        <mxCell id="KQYmgQ2tdcygpwAe7LnK-31" value="" style="edgeStyle=orthogonalEdgeStyle;rounded=0;orthogonalLoop=1;jettySize=auto;html=1;exitX=0;exitY=0.5;exitDx=0;exitDy=0;fontFamily=Courier New;" parent="WIyWlLk6GJQsqaUBKTNV-1" source="KQYmgQ2tdcygpwAe7LnK-32" target="KQYmgQ2tdcygpwAe7LnK-30" edge="1">
          <mxGeometry relative="1" as="geometry">
            <mxPoint x="230" y="252.44444444444457" as="sourcePoint" />
          </mxGeometry>
        </mxCell>
        <mxCell id="KQYmgQ2tdcygpwAe7LnK-16" value="" style="edgeStyle=orthogonalEdgeStyle;rounded=0;orthogonalLoop=1;jettySize=auto;html=1;fontFamily=Courier New;" parent="WIyWlLk6GJQsqaUBKTNV-1" source="KQYmgQ2tdcygpwAe7LnK-13" target="KQYmgQ2tdcygpwAe7LnK-15" edge="1">
          <mxGeometry relative="1" as="geometry" />
        </mxCell>
        <mxCell id="KQYmgQ2tdcygpwAe7LnK-13" value="Mengirim API Request TMDB" style="whiteSpace=wrap;html=1;fontSize=11;fontFamily=Courier New;" parent="WIyWlLk6GJQsqaUBKTNV-1" vertex="1">
          <mxGeometry x="650" y="370" width="160" height="70" as="geometry" />
        </mxCell>
        <mxCell id="KQYmgQ2tdcygpwAe7LnK-21" value="" style="edgeStyle=orthogonalEdgeStyle;rounded=0;orthogonalLoop=1;jettySize=auto;html=1;fontFamily=Courier New;" parent="WIyWlLk6GJQsqaUBKTNV-1" source="KQYmgQ2tdcygpwAe7LnK-15" target="KQYmgQ2tdcygpwAe7LnK-20" edge="1">
          <mxGeometry relative="1" as="geometry" />
        </mxCell>
        <mxCell id="KQYmgQ2tdcygpwAe7LnK-15" value="Mengambil data movie dari TMDB" style="whiteSpace=wrap;html=1;fontSize=11;fontFamily=Courier New;" parent="WIyWlLk6GJQsqaUBKTNV-1" vertex="1">
          <mxGeometry x="650" y="480" width="160" height="70" as="geometry" />
        </mxCell>
        <mxCell id="KQYmgQ2tdcygpwAe7LnK-23" value="" style="edgeStyle=orthogonalEdgeStyle;rounded=0;orthogonalLoop=1;jettySize=auto;html=1;fontFamily=Courier New;" parent="WIyWlLk6GJQsqaUBKTNV-1" source="KQYmgQ2tdcygpwAe7LnK-20" target="KQYmgQ2tdcygpwAe7LnK-22" edge="1">
          <mxGeometry relative="1" as="geometry" />
        </mxCell>
        <mxCell id="KQYmgQ2tdcygpwAe7LnK-20" value="Memproses data movie berdasarkan filtering" style="whiteSpace=wrap;html=1;fontSize=11;fontFamily=Courier New;" parent="WIyWlLk6GJQsqaUBKTNV-1" vertex="1">
          <mxGeometry x="440" y="480" width="160" height="70" as="geometry" />
        </mxCell>
        <mxCell id="KQYmgQ2tdcygpwAe7LnK-22" value="Menampilkan hasil filtering" style="whiteSpace=wrap;html=1;fontSize=11;fontFamily=Courier New;" parent="WIyWlLk6GJQsqaUBKTNV-1" vertex="1">
          <mxGeometry x="440" y="610" width="160" height="70" as="geometry" />
        </mxCell>
        <mxCell id="KQYmgQ2tdcygpwAe7LnK-29" value="" style="edgeStyle=orthogonalEdgeStyle;rounded=0;orthogonalLoop=1;jettySize=auto;html=1;fontFamily=Courier New;" parent="WIyWlLk6GJQsqaUBKTNV-1" source="KQYmgQ2tdcygpwAe7LnK-22" target="KQYmgQ2tdcygpwAe7LnK-26" edge="1">
          <mxGeometry relative="1" as="geometry">
            <mxPoint x="520" y="960" as="sourcePoint" />
            <mxPoint x="520" y="1070" as="targetPoint" />
          </mxGeometry>
        </mxCell>
        <mxCell id="KQYmgQ2tdcygpwAe7LnK-50" style="edgeStyle=orthogonalEdgeStyle;rounded=0;orthogonalLoop=1;jettySize=auto;html=1;entryX=0.5;entryY=1;entryDx=0;entryDy=0;" parent="WIyWlLk6GJQsqaUBKTNV-1" source="KQYmgQ2tdcygpwAe7LnK-26" target="KQYmgQ2tdcygpwAe7LnK-0" edge="1">
          <mxGeometry relative="1" as="geometry">
            <mxPoint x="87.43999999999983" y="140.14" as="targetPoint" />
          </mxGeometry>
        </mxCell>
        <mxCell id="KQYmgQ2tdcygpwAe7LnK-26" value="End" style="ellipse;whiteSpace=wrap;html=1;fontFamily=Courier New;" parent="WIyWlLk6GJQsqaUBKTNV-1" vertex="1">
          <mxGeometry x="440" y="730" width="160" height="70" as="geometry" />
        </mxCell>
        <mxCell id="KQYmgQ2tdcygpwAe7LnK-35" value="" style="edgeStyle=orthogonalEdgeStyle;rounded=0;orthogonalLoop=1;jettySize=auto;html=1;" parent="WIyWlLk6GJQsqaUBKTNV-1" source="KQYmgQ2tdcygpwAe7LnK-30" target="KQYmgQ2tdcygpwAe7LnK-34" edge="1">
          <mxGeometry relative="1" as="geometry" />
        </mxCell>
        <mxCell id="KQYmgQ2tdcygpwAe7LnK-30" value="Mengosongkan input dan output" style="whiteSpace=wrap;html=1;fontSize=11;fontFamily=Courier New;" parent="WIyWlLk6GJQsqaUBKTNV-1" vertex="1">
          <mxGeometry x="130" y="370" width="160" height="70" as="geometry" />
        </mxCell>
        <mxCell id="KQYmgQ2tdcygpwAe7LnK-60" style="edgeStyle=orthogonalEdgeStyle;rounded=0;orthogonalLoop=1;jettySize=auto;html=1;exitX=0.5;exitY=0;exitDx=0;exitDy=0;" parent="WIyWlLk6GJQsqaUBKTNV-1" source="KQYmgQ2tdcygpwAe7LnK-32" edge="1">
          <mxGeometry relative="1" as="geometry">
            <mxPoint x="90" y="160" as="targetPoint" />
            <Array as="points">
              <mxPoint x="315" y="180" />
              <mxPoint x="315" y="180" />
            </Array>
          </mxGeometry>
        </mxCell>
        <mxCell id="KQYmgQ2tdcygpwAe7LnK-32" value="Reset pencarian" style="rhombus;whiteSpace=wrap;html=1;fontFamily=Courier New;" parent="WIyWlLk6GJQsqaUBKTNV-1" vertex="1">
          <mxGeometry x="250" y="190" width="130" height="125" as="geometry" />
        </mxCell>
        <mxCell id="KQYmgQ2tdcygpwAe7LnK-55" style="edgeStyle=orthogonalEdgeStyle;rounded=0;orthogonalLoop=1;jettySize=auto;html=1;exitX=0;exitY=0.5;exitDx=0;exitDy=0;" parent="WIyWlLk6GJQsqaUBKTNV-1" source="KQYmgQ2tdcygpwAe7LnK-34" edge="1">
          <mxGeometry relative="1" as="geometry">
            <mxPoint x="90" y="534.4285714285716" as="targetPoint" />
          </mxGeometry>
        </mxCell>
        <mxCell id="KQYmgQ2tdcygpwAe7LnK-34" value="Reset berhasil" style="whiteSpace=wrap;html=1;fontSize=11;fontFamily=Courier New;" parent="WIyWlLk6GJQsqaUBKTNV-1" vertex="1">
          <mxGeometry x="130" y="500" width="160" height="70" as="geometry" />
        </mxCell>
        <mxCell id="KQYmgQ2tdcygpwAe7LnK-45" value="No" style="text;html=1;align=center;verticalAlign=middle;resizable=0;points=[];autosize=1;strokeColor=none;fillColor=none;" parent="WIyWlLk6GJQsqaUBKTNV-1" vertex="1">
          <mxGeometry x="374" y="218" width="40" height="30" as="geometry" />
        </mxCell>
        <mxCell id="KQYmgQ2tdcygpwAe7LnK-46" value="Yes" style="text;html=1;align=center;verticalAlign=middle;resizable=0;points=[];autosize=1;strokeColor=none;fillColor=none;" parent="WIyWlLk6GJQsqaUBKTNV-1" vertex="1">
          <mxGeometry x="525" y="340" width="40" height="30" as="geometry" />
        </mxCell>
        <mxCell id="KQYmgQ2tdcygpwAe7LnK-49" value="Yes" style="text;html=1;align=center;verticalAlign=middle;resizable=0;points=[];autosize=1;strokeColor=none;fillColor=none;" parent="WIyWlLk6GJQsqaUBKTNV-1" vertex="1">
          <mxGeometry x="210" y="338" width="40" height="30" as="geometry" />
        </mxCell>
        <mxCell id="KQYmgQ2tdcygpwAe7LnK-61" value="No" style="text;html=1;align=center;verticalAlign=middle;resizable=0;points=[];autosize=1;strokeColor=none;fillColor=none;" parent="WIyWlLk6GJQsqaUBKTNV-1" vertex="1">
          <mxGeometry x="90" y="158" width="40" height="30" as="geometry" />
        </mxCell>
      </root>
    </mxGraphModel>
  </diagram>
</mxfile>
